<?xml version="1.0" standalone="no"?>
<!DOCTYPE svg PUBLIC "-//W3C//DTD SVG 20010904//EN"
 "http://www.w3.org/TR/2001/REC-SVG-20010904/DTD/svg10.dtd">
<svg version="1.0" xmlns="http://www.w3.org/2000/svg"
 width="1920.000000pt" height="1920.000000pt" viewBox="0 0 1920.000000 1920.000000"
 preserveAspectRatio="xMidYMid meet">

<g transform="translate(0.000000,1920.000000) scale(0.100000,-0.100000)"
fill="#000000" stroke="none">
<path d="M5533 14275 c-64 -28 -63 -14 -63 -644 0 -554 1 -571 19 -581 30 -16
107 -12 125 6 14 14 16 78 16 560 l0 544 3970 0 3970 0 0 -3403 c0 -2633 3
-3406 12 -3415 16 -16 120 -16 136 0 9 9 12 786 12 3435 0 3797 6 3469 -65
3499 -51 21 -8083 20 -8132 -1z"/>
<path d="M5970 13860 c0 -5 -7 -10 -15 -10 -13 0 -15 -38 -15 -285 l0 -285 50
0 50 0 0 245 0 245 3590 0 3590 0 0 50 0 50 -3625 0 c-2410 0 -3625 -3 -3625
-10z"/>
<path d="M5895 13143 c-14 -3 -40 -42 -84 -126 -116 -219 -212 -381 -245 -412
-18 -16 -23 -23 -13 -15 19 14 19 14 8 -7 -22 -42 -14 -61 29 -74 43 -13 97
-3 135 25 17 12 12 12 -28 -1 -52 -17 -77 -8 -77 28 0 19 159 280 191 313 10
11 37 23 61 27 l43 6 -42 2 c-24 0 -43 4 -43 8 0 3 27 52 60 109 33 56 60 107
60 113 0 11 -16 12 -55 4z"/>
<path d="M5269 13084 c-17 -21 0 -49 31 -49 31 0 48 28 31 49 -8 9 -21 16 -31
16 -10 0 -23 -7 -31 -16z"/>
<path d="M6103 12891 c-138 -70 -223 -183 -223 -297 0 -43 35 -83 80 -90 77
-12 216 68 281 162 34 50 69 148 69 193 0 37 -30 62 -82 68 -36 4 -57 -2 -125
-36z m125 -28 c21 -29 14 -104 -15 -164 -33 -65 -128 -164 -166 -171 -45 -9
-78 2 -89 31 -14 36 -5 101 22 156 25 52 115 149 152 165 30 13 80 4 96 -17z"/>
<path d="M4724 12803 c-149 -225 -151 -312 -6 -299 158 14 330 172 358 328 11
64 -47 102 -123 82 -27 -7 -31 -24 -5 -24 10 0 28 -7 40 -16 20 -14 23 -21 17
-58 -11 -66 -54 -141 -114 -202 -59 -60 -102 -84 -148 -84 -32 0 -73 25 -73
43 0 25 70 158 129 245 33 49 57 92 54 96 -4 3 -16 6 -29 6 -17 0 -39 -26
-100 -117z"/>
<path d="M5089 12734 c-77 -137 -111 -190 -132 -201 -35 -18 -30 -28 6 -12 20
9 30 8 48 -5 49 -34 146 -9 203 53 36 38 41 38 44 4 3 -41 33 -65 88 -70 l49
-4 -40 23 c-40 24 -40 24 -39 84 1 108 79 230 179 283 80 42 152 14 90 -35
-35 -28 -29 -38 13 -23 35 12 43 25 31 56 -24 64 -181 23 -263 -68 -60 -65
-124 -197 -85 -174 12 8 12 6 0 -8 -7 -9 -18 -17 -23 -17 -6 0 -30 -18 -54
-39 -55 -48 -96 -64 -119 -47 -15 11 -8 29 74 193 92 184 94 193 46 193 -7 0
-59 -84 -116 -186z"/>
<path d="M6495 12803 c-138 -201 -147 -221 -33 -73 90 116 99 124 132 109 14
-7 26 -16 26 -21 0 -4 -27 -44 -59 -87 -72 -98 -99 -161 -83 -196 15 -32 56
-42 96 -23 38 19 126 96 126 110 0 6 -22 -10 -50 -36 -27 -25 -61 -52 -76 -58
-23 -11 -28 -10 -40 7 -8 10 -14 30 -14 44 0 45 58 150 117 214 107 116 108
117 91 117 -9 0 -30 -11 -46 -25 -35 -29 -88 -35 -78 -9 6 16 -9 44 -23 44 -3
0 -42 -53 -86 -117z"/>
<path d="M5805 12604 l-60 -56 63 48 c64 48 80 64 65 64 -4 -1 -35 -26 -68
-56z"/>
<path d="M6354 12639 c-10 -12 -46 -42 -79 -67 -82 -62 -87 -68 -35 -42 62 32
102 63 123 99 21 36 18 40 -9 10z"/>
<path d="M5482 12378 c-9 -9 -12 -778 -12 -3400 0 -3759 -6 -3434 65 -3464 52
-21 8078 -21 8130 0 66 28 65 17 65 600 0 288 -3 531 -6 540 -5 12 -21 16 -74
16 -53 0 -69 -4 -74 -16 -3 -9 -6 -243 -6 -520 l0 -504 -3970 0 -3970 0 0
3368 c0 2606 -3 3371 -12 3380 -7 7 -37 12 -68 12 -31 0 -61 -5 -68 -12z"/>
<path d="M6394 12208 c-59 -28 -57 -140 3 -167 16 -8 188 -11 558 -11 294 0
535 -2 535 -5 0 -3 18 -69 39 -148 22 -78 58 -214 82 -302 23 -88 54 -207 70
-265 114 -431 141 -532 154 -580 8 -30 35 -131 60 -225 25 -93 52 -195 60
-225 9 -30 42 -154 74 -275 32 -121 86 -321 119 -445 33 -124 81 -304 106
-400 l47 -175 -74 -275 c-41 -151 -98 -365 -127 -475 -29 -110 -56 -204 -60
-208 -4 -4 -19 41 -34 100 -26 100 -96 363 -131 493 -8 30 -35 132 -60 225
-25 94 -52 195 -60 225 -8 30 -35 132 -60 225 -25 94 -52 195 -60 225 -8 30
-35 132 -60 225 -25 94 -52 193 -60 220 -7 28 -34 129 -59 225 -26 96 -53 198
-60 225 -8 28 -35 129 -60 225 -26 96 -52 198 -60 225 -21 77 -42 155 -90 335
-129 486 -169 627 -183 642 -18 21 -72 33 -102 23 -32 -10 -61 -45 -61 -74 0
-14 249 -960 554 -2100 466 -1747 557 -2078 576 -2093 28 -22 107 -24 137 -3
13 9 28 37 36 68 8 28 42 158 77 287 34 129 90 341 125 470 35 129 91 341 125
470 143 534 181 677 190 710 5 19 32 121 60 225 28 105 55 206 60 225 5 19 37
139 71 265 34 127 87 327 119 445 31 118 85 319 118 445 34 127 88 329 120
450 33 121 67 253 77 293 l19 72 264 0 c225 0 263 -2 259 -14 -3 -8 -29 -101
-57 -208 -29 -106 -73 -274 -100 -373 -26 -99 -81 -301 -120 -450 -40 -148
-98 -367 -129 -485 -32 -118 -86 -321 -121 -450 -34 -129 -88 -332 -120 -450
-31 -118 -85 -318 -118 -445 -34 -126 -90 -338 -126 -470 -35 -132 -92 -346
-126 -475 -34 -129 -80 -299 -101 -377 -22 -79 -39 -154 -39 -168 0 -38 40
-72 91 -80 24 -3 198 -5 386 -3 l341 3 25 23 c14 13 27 36 30 50 7 34 -15 87
-41 101 -14 7 -124 11 -316 11 -163 0 -296 3 -296 6 0 4 14 57 30 118 17 61
70 262 119 446 49 184 297 1112 550 2062 254 950 461 1736 461 1748 0 11 -11
32 -25 45 l-24 25 -404 0 c-392 0 -404 -1 -425 -20 -12 -12 -22 -22 -22 -23
-2 -14 -748 -2798 -751 -2801 -2 -2 -173 628 -378 1400 -318 1191 -379 1408
-399 1427 l-24 22 -591 2 c-396 1 -599 -2 -613 -9z"/>
<path d="M10480 12213 c-8 -3 -25 -15 -37 -26 -23 -20 -23 -22 -23 -319 l0
-299 25 -24 c18 -19 35 -25 70 -25 35 0 52 6 70 25 l25 24 0 231 0 230 145 0
145 0 0 -1980 c0 -2189 -5 -2037 64 -2060 41 -13 71 -7 104 23 l22 20 0 1999
0 1998 579 0 580 0 28 24 c37 32 40 103 5 138 l-23 23 -882 2 c-485 1 -889 -1
-897 -4z"/>
<path d="M11684 11783 c-12 -2 -30 -13 -40 -25 -18 -19 -19 -88 -22 -2019 l-2
-1999 -576 0 -576 0 -29 -29 c-37 -38 -39 -88 -5 -128 l24 -28 895 0 895 0 26
24 26 24 0 299 0 299 -25 24 c-33 34 -93 34 -132 1 l-28 -24 -3 -231 -3 -231
-150 0 -149 0 0 1994 0 1995 -22 25 c-23 26 -65 38 -104 29z"/>
<path d="M13313 7698 c-5 -7 -25 -40 -43 -73 -18 -33 -93 -161 -165 -285 -73
-124 -153 -260 -177 -303 -68 -118 -190 -214 -233 -183 -15 11 -8 29 74 193
92 184 94 193 47 193 -12 0 -216 -350 -216 -370 0 -6 9 -19 20 -30 40 -40 135
-18 203 48 40 39 45 37 21 -9 -25 -50 -13 -63 52 -56 96 10 176 60 219 137 4
8 -10 -1 -31 -22 -48 -44 -132 -98 -155 -98 -9 0 -22 6 -28 14 -12 14 5 45
209 381 167 276 270 452 270 464 0 15 -55 14 -67 -1z"/>
<path d="M12879 7404 c-17 -21 0 -49 31 -49 31 0 48 28 31 49 -8 9 -21 16 -31
16 -10 0 -23 -7 -31 -16z"/>
<path d="M13369 7404 c-17 -21 0 -49 31 -49 31 0 48 28 31 49 -8 9 -21 16 -31
16 -10 0 -23 -7 -31 -16z"/>
<path d="M13825 7253 c-13 -3 -42 -43 -85 -120 -71 -128 -135 -205 -208 -252
-55 -35 -78 -38 -109 -13 l-21 17 99 175 c54 96 99 178 99 183 0 12 -48 8 -62
-6 -7 -8 -51 -76 -97 -153 -59 -98 -98 -151 -132 -179 -63 -53 -101 -68 -124
-51 -16 11 -9 27 74 193 92 184 94 193 47 193 -12 0 -216 -350 -216 -370 0 -6
9 -19 20 -30 39 -39 145 -15 200 45 l25 27 5 -33 c3 -23 14 -38 32 -48 24 -14
33 -13 104 7 42 13 79 21 82 18 2 -3 -10 -19 -28 -36 -22 -21 -27 -30 -16 -30
9 0 16 -2 16 -4 0 -13 -149 -254 -180 -289 l-35 -42 32 23 c59 42 140 133 204
231 61 93 67 99 119 117 30 10 92 42 138 71 46 29 85 53 87 53 1 0 5 -21 8
-47 8 -72 64 -102 132 -73 19 8 19 9 -2 9 -29 1 -53 37 -53 79 0 18 13 58 29
90 31 61 154 212 173 212 6 0 9 3 5 6 -20 20 -176 -107 -245 -200 -12 -16 -22
-25 -22 -21 0 4 -25 -15 -55 -44 -50 -47 -198 -131 -210 -119 -9 9 92 195 158
293 37 53 67 103 67 111 0 14 -15 16 -55 7z"/>
<path d="M14261 7230 c54 -28 64 -45 50 -78 -28 -61 -104 -183 -142 -226 -28
-32 -36 -46 -25 -46 9 0 16 -6 16 -13 0 -24 35 -47 71 -47 33 0 33 0 11 16
-12 8 -22 22 -22 30 0 8 43 85 95 171 52 87 95 163 95 171 0 8 -7 11 -18 8
-10 -4 -37 3 -60 14 -22 11 -56 20 -74 20 l-33 -1 36 -19z"/>
<path d="M14429 6913 c-13 -16 -12 -17 4 -4 9 7 17 15 17 17 0 8 -8 3 -21 -13z"/>
<path d="M10910 6913 c-339 -18 -646 -52 -1235 -134 -917 -127 -1247 -159
-1647 -159 -380 0 -799 50 -1081 129 -48 13 -69 15 -72 7 -2 -6 -8 -26 -14
-45 -6 -19 -10 -36 -8 -37 8 -8 206 -56 327 -78 309 -59 619 -82 975 -73 387
10 679 39 1390 138 917 127 1247 159 1647 159 380 0 799 -50 1081 -129 48 -13
69 -15 72 -7 2 6 8 26 14 45 6 19 10 35 8 37 -18 19 -391 95 -577 118 -252 31
-620 44 -880 29z"/>
<path d="M14350 6865 c-14 -8 -20 -14 -14 -15 5 0 19 7 30 15 24 18 16 19 -16
0z"/>
<path d="M14278 6833 c7 -3 16 -2 19 1 4 3 -2 6 -13 5 -11 0 -14 -3 -6 -6z"/>
<path d="M13334 6704 c-130 -78 -248 -186 -263 -240 -12 -45 -6 -63 28 -70 14
-3 32 -7 39 -10 9 -2 12 -54 12 -214 l0 -210 -3605 0 -3605 0 0 -50 0 -50
3640 0 c2420 0 3640 3 3640 10 0 6 7 10 15 10 13 0 15 37 15 270 0 246 2 270
18 279 12 7 -5 9 -62 8 -84 -1 -104 11 -91 53 13 40 115 137 199 190 76 47 94
60 83 60 -2 0 -30 -16 -63 -36z"/>
</g>
</svg>
